<?xml version="1.0" encoding="utf-8"?>
<!-- Generator: Adobe Illustrator 19.0.0, SVG Export Plug-In . SVG Version: 6.00 Build 0)  -->
<svg version="1.1" id="Capa_1" xmlns="http://www.w3.org/2000/svg" xmlns:xlink="http://www.w3.org/1999/xlink" x="0px" y="0px"
	 viewBox="-403 279.3 32.2 37" style="enable-background:new -403 279.3 32.2 37;" xml:space="preserve">
<style type="text/css">
	.st0{fill:#404040;}
	.st1{fill:#FFFFFF;}
</style>
<title>logo</title>
<desc>Created with Sketch.</desc>
<g id="XMLID_112_">
	<circle id="XMLID_126_" class="st0" cx="-386.6" cy="298.1" r="15.8"/>
</g>
<g id="XMLID_109_">
	<g>
		<path id="XMLID_20_" class="st1" d="M-385.8,291.3c0.8,0.4,1.3,1,1.6,1.9l1.8,4.6l-2.3,0.9l-1.6-4.1c-0.2-0.4-0.4-0.7-0.7-0.9
			c-0.3-0.2-0.7-0.2-1,0c-0.4,0.2-0.7,0.5-0.9,0.9c-0.1,0.4-0.1,0.9,0.1,1.5l1.4,3.6l-2.4,0.9l-1.6-4.1c-0.2-0.4-0.4-0.7-0.7-0.9
			c-0.3-0.2-0.7-0.2-1,0c-0.4,0.2-0.7,0.5-0.9,0.9c-0.1,0.4-0.1,0.9,0.2,1.5l1.4,3.6l-2.4,0.9l-2.8-7.4l2.4-0.9l0.3,0.7
			c0.3-0.8,0.9-1.4,1.8-1.7c1.1-0.4,2.1-0.3,2.9,0.3c0.3-1.1,1-1.8,2.2-2.2C-387.3,290.9-386.5,290.9-385.8,291.3z"/>
	</g>
</g>
<g id="XMLID_107_">
	<g>
		<path id="XMLID_10_" class="st1" d="M-384.3,305.4c-1.4,0-2.9-0.4-4.6-1.3l1.1-2.1c2.1,1.1,3.9,1.3,5.3,0.6
			c2.3-1.1,2.9-4.4,2.9-4.4l2.3,0.4c0,0.2-0.8,4.4-4.2,6.1C-382.4,305.2-383.3,305.4-384.3,305.4z"/>
	</g>
</g>
<g id="XMLID_72_">
	<g>
		
			<ellipse id="XMLID_9_" transform="matrix(0.9892 0.1464 -0.1464 0.9892 39.2699 58.5578)" class="st1" cx="-378.1" cy="296" rx="1.5" ry="1.4"/>
	</g>
</g>
</svg>
